<svg id="Capa_1" enable-background="new 0 0 512 512" height="512" viewBox="0 0 512 512" width="512" xmlns="http://www.w3.org/2000/svg"><g><path d="m456.5 130h-45v382h45c8.283 0 15-6.716 15-15v-352c0-8.284-6.717-15-15-15z"/><path d="m40.5 145v352c0 8.284 6.716 15 15 15h45v-382h-45c-8.284 0-15 6.716-15 15z"/><path d="m366.5 60h-221c-8.284 0-15 6.716-15 15v437h65.5v-105c0-8.284 6.716-15 15-15h90c8.283 0 15 6.716 15 15v105h65.5v-437c0-8.284-6.717-15-15-15zm-140.5 60h60c8.283 0 15 6.716 15 15s-6.717 15-15 15h-60c-8.284 0-15-6.716-15-15s6.716-15 15-15zm79.16 181.453c-2.989 16.741-16.5 29.751-33.982 34.036v1.511c0 8.284-6.716 15-15 15s-15-6.716-15-15v-2.226c-12.023-3.146-22.847-9.535-31.024-18.557-5.564-6.138-5.098-15.624 1.041-21.188 6.137-5.564 15.624-5.097 21.187 1.04 6.205 6.844 15.984 10.93 26.164 10.93 9.483 0 16.133-5.501 17.083-10.82 1.237-6.929-9.626-11.51-12.985-12.749-16.641-6.138-31.42-12.717-32.041-12.994-.723-.322-1.418-.701-2.08-1.133-11.816-7.703-17.906-21.211-15.89-35.252 2.142-14.923 13.027-27.072 28.409-31.706.046-.014.091-.024.137-.037v-2.308c0-8.284 6.716-15 15-15s15 6.716 15 15v1.708c14.373 3.585 24.145 11.531 25.756 12.906 6.303 5.377 7.053 14.845 1.676 21.147-5.363 6.286-14.796 7.048-21.097 1.718-.418-.341-13.42-10.745-27.819-6.408-5.968 1.798-7.14 5.664-7.366 7.243-.185 1.291-.151 3.591 1.871 5.33 3.967 1.733 15.962 6.895 28.826 11.64 27.931 10.303 34.914 30.605 32.134 46.169z"/><path d="m226 422h60v90h-60z"/><path d="m328 15c0-8.284-6.717-15-15-15h-114c-8.284 0-15 6.716-15 15v15h144z"/></g></svg>