<svg id="Layer_1" enable-background="new 0 0 512 512" height="512" viewBox="0 0 512 512" width="512" xmlns="http://www.w3.org/2000/svg"><g><path d="m355.255 407c-6.447 0-12.709-.795-18.709-2.262l10.192 93.881c.826 7.613 7.255 13.381 14.912 13.381h87.52c7.657 0 14.086-5.768 14.912-13.381l10.192-93.881c-5.999 1.468-12.262 2.262-18.709 2.262z"/><path d="m56.436 407c-6.448 0-12.71-.795-18.709-2.262l10.192 93.881c.826 7.613 7.254 13.381 14.912 13.381h87.519c7.658 0 14.086-5.768 14.912-13.381l10.192-93.881c-6 1.468-12.262 2.262-18.71 2.262z"/><path d="m255.959 216.449 9.937-12.878-9.937-25.401-9.938 25.401z"/><path d="m150.961 362c0 8.284 6.716 15 15 15h179.995c8.284 0 15-6.716 15-15v-137.003c0-34.288-16.522-64.787-42.021-83.962-10.746 9.172-23.513 16.038-37.525 19.848l15.518 39.665c1.92 4.906 1.125 10.458-2.094 14.629l-27 34.987c-2.84 3.681-7.227 5.836-11.875 5.836s-9.035-2.155-11.875-5.836l-27-34.987c-3.219-4.17-4.014-9.723-2.094-14.629l15.518-39.665c-14.013-3.81-26.78-10.676-37.526-19.849-25.499 19.174-42.021 49.674-42.021 83.961z"/><path d="m387.242 193.518c5.788 1.606 11.876 2.482 18.168 2.482 37.529 0 68.062-30.532 68.062-68.061s-30.532-68.061-68.062-68.061c-22.2 0-41.941 10.692-54.371 27.189-2.351 11.232-6.65 21.755-12.523 31.203 23.912 18.54 41.453 44.916 48.726 75.248z"/><path d="m255.958 134.279c37.021 0 67.14-30.119 67.14-67.139 0-37.021-30.119-67.14-67.14-67.14s-67.139 30.119-67.139 67.14c0 37.02 30.119 67.139 67.139 67.139z"/><path d="m486.611 182.857c-17.652 26.016-47.464 43.143-81.202 43.143-4.911 0-9.735-.373-14.454-1.074 0 .023.001.047.001.07v137.004c0 5.258-.915 10.305-2.58 15h67.189c26.706 0 48.435-21.571 48.435-48.086v-109.184c0-14.794-6.769-28.045-17.389-36.873z"/><path d="m198.047 498.619c.826 7.613 7.255 13.381 14.912 13.381h86c7.657 0 14.086-5.768 14.912-13.381l9.947-91.619h-135.718z"/><path d="m123.541 377c-1.665-4.695-2.58-9.742-2.58-15v-137.003c0-.02.001-.039.001-.059-4.693.692-9.49 1.062-14.372 1.062-33.738 0-63.549-17.127-81.201-43.143-10.62 8.828-17.389 22.079-17.389 36.873v109.184c0 26.515 21.729 48.086 48.436 48.086z"/><path d="m106.59 196c6.26 0 12.318-.867 18.079-2.457 7.269-30.343 24.814-56.728 48.733-75.272-5.9-9.491-10.212-20.066-12.557-31.355-12.436-16.411-32.123-27.038-54.255-27.038-37.529 0-68.061 30.532-68.061 68.061s30.533 68.061 68.061 68.061z"/></g></svg>